<?xml version="1.0" encoding="UTF-8"?>
<svg width="1024" height="512" version="1.1" viewBox="0 0 1024 512" xmlns="http://www.w3.org/2000/svg"><g stroke-width="0"><rect transform="matrix(.88043 0 0 .88043 13.076 92.087)" x="93.491" y="-73.234" width="946.38" height="518.82" fill="#fff"/><g transform="matrix(.69521 0 0 .69521 -43.394 -63.038)"><path d="m535.36 439.19v100.77l39.705 39.707h100.77zm39.705 140.47h-39.705v26.725h66.43z"/><path d="m475.36 439.19v100.77l-39.705 39.707h-100.77zm-39.705 140.47h39.705v26.725h-66.43z"/><path d="m475.36 493.38-105.5-105.5h105.5z"/><path d="m590.85 331.72-57.838-57.837h57.838z"/><path d="m422.61 331.72 57.838-57.837h-57.838z"/><path d="m535.36 493.38 105.5-105.5h-105.5z"/><path d="m601.79 672.82-66.431-66.431h66.431z"/><path d="m408.93 672.82 66.431-66.431h-66.431z"/><path transform="translate(64.587 72.205)" d="m442.14 405.21-84.121-145.7h84.121 84.121l-42.061 72.851z"/><rect x="475.36" y="475.04" width="60" height="197.78"/></g><path transform="matrix(1.0145 0 0 1.0145 179.33 -700.63)" d="m296.39 1011.5h33.024v-31.104l11.904-16.896 27.648 48h36.096l-44.544-74.112 37.248-50.688h-36.096l-31.488 46.464h-0.768v-46.464h-33.024zm110.1 0h82.56v-27.648h-49.536v-22.272h40.704v-27.648h-40.704v-19.584h47.616v-27.648h-80.64zm96.272 0h33.024v-124.8h-33.024zm50.192 0h31.488v-36.096c0-15.36-2.688-33.408-4.224-47.616h0.768c3.84 9.6 7.68 19.584 11.904 28.032l27.648 55.68h33.792v-124.8h-31.488v36.096c0 15.36 2.688 34.176 4.224 47.616h-0.768c-3.84-9.6-7.68-19.584-11.904-28.032l-27.648-55.68h-33.792z" style="white-space:pre" aria-label="KEIN"/></g></svg>
